<svg height="512pt" viewBox="0 0 512 512" width="512pt" xmlns="http://www.w3.org/2000/svg"><path d="m462 0h-412c-27.570312 0-50 22.429688-50 50v332c0 27.570312 22.429688 50 50 50h291.226562c1.910157 2.550781 4.089844 4.824219 6.503907 6.769531v63.230469c0 4.042969 2.4375 7.691406 6.175781 9.238281 3.734375 1.546875 8.035156.691407 10.898438-2.167969l23.839843-23.84375 23.835938 23.84375c1.914062 1.914063 4.472656 2.929688 7.074219 2.929688 1.289062 0 2.589843-.25 3.824218-.761719 3.738282-1.546875 6.175782-5.195312 6.175782-9.238281v-63.238281c2.414062-1.945313 4.613281-4.207031 6.527343-6.761719h25.917969c27.570312 0 50-22.429688 50-50v-332c0-27.570312-22.429688-50-50-50zm-131.839844 356.0625c-2.71875-8.402344 1.015625-17.417969 8.882813-21.4375 7.144531-3.648438 12.847656-9.355469 16.5-16.5 3.132812-6.136719 9.316406-9.757812 15.875-9.757812 1.84375 0 3.714843.285156 5.558593.882812 7.632813 2.46875 15.703126 2.46875 23.335938 0 8.398438-2.71875 17.414062 1.011719 21.433594 8.875 3.648437 7.144531 9.355468 12.851562 16.5 16.503906 7.863281 4.015625 11.601562 13.03125 8.878906 21.433594-2.472656 7.632812-2.472656 15.703125 0 23.335938 2.71875 8.402343-1.015625 17.414062-8.878906 21.433593-7.144532 3.648438-12.851563 9.355469-16.5 16.5-4.019532 7.863281-13.03125 11.601563-21.433594 8.878907-7.632812-2.472657-15.703125-2.46875-23.335938 0-8.402343 2.722656-17.417968-1.015626-21.433593-8.878907-3.652344-7.144531-9.359375-12.851562-16.5-16.5-6.699219-3.421875-10.382813-10.464843-9.65625-17.671875.914062-1.507812 1.445312-3.269531 1.445312-5.160156 0-.269531-.019531-.53125-.039062-.792969 1.808593-6.976562 1.605469-14.238281-.632813-21.144531zm79.394532 121.792969-13.839844-13.84375c-1.875-1.875-4.417969-2.929688-7.070313-2.929688-2.652343 0-5.195312 1.054688-7.074219 2.929688l-13.839843 13.84375v-30.941407c1.203125.113282 2.410156.195313 3.628906.195313 3.902344 0 7.871094-.605469 11.773437-1.871094 3.605469-1.167969 7.414063-1.167969 11.019532 0 5.121094 1.660157 10.347656 2.179688 15.402344 1.691407zm82.445312-95.855469c0 16.542969-13.457031 30-30 30h-5.382812c8.417968-8.1875 12.589843-19.882812 11.105468-31.699219.175782-.742187.277344-1.507812.277344-2.300781v-26.453125c.019531-.746094.019531-1.488281 0-2.226563v-295.320312c0-5.523438-4.476562-10-10-10h-156.875c-5.523438 0-10 4.476562-10 10s4.476562 10 10 10h146.875v253.167969c-.21875-.117188-.433594-.238281-.652344-.351563-3.375-1.722656-6.066406-4.417968-7.789062-7.789062-8.511719-16.660156-27.609375-24.566406-45.40625-18.808594-3.605469 1.167969-7.414063 1.167969-11.015625 0-17.796875-5.761719-36.894531 2.148438-45.40625 18.808594-1.722657 3.371094-4.417969 6.066406-7.789063 7.789062-16.660156 8.511719-24.570312 27.605469-18.808594 45.40625.613282 1.886719.894532 3.832032.863282 5.777344h-247.996094v-304h147.125c5.523438 0 10-4.476562 10-10s-4.476562-10-10-10h-157.125c-5.523438 0-10 4.476562-10 10v324c0 5.523438 4.476562 10 10 10h255.386719c.722656 9.0625 4.707031 17.601562 11.28125 24h-270.667969c-16.542969 0-30-13.457031-30-30v-332c0-16.542969 13.457031-30 30-30h412c16.542969 0 30 13.457031 30 30zm0 0"/><path d="m388.644531 411.125c23.925781 0 43.394531-19.464844 43.394531-43.394531 0-23.929688-19.46875-43.398438-43.394531-43.398438-23.929687 0-43.398437 19.46875-43.398437 43.398438 0 23.929687 19.46875 43.394531 43.398437 43.394531zm0-66.792969c12.898438 0 23.394531 10.496094 23.394531 23.394531 0 12.902344-10.496093 23.398438-23.394531 23.398438-12.902343 0-23.398437-10.496094-23.398437-23.398438 0-12.898437 10.496094-23.394531 23.398437-23.394531zm0 0"/><path d="m256.125 161.25c19.09375 0 34.625-15.535156 34.625-34.625 0-19.09375-15.53125-34.625-34.625-34.625-19.089844 0-34.625 15.53125-34.625 34.625 0 19.089844 15.535156 34.625 34.625 34.625zm0-49.25c8.066406 0 14.625 6.5625 14.625 14.625s-6.558594 14.625-14.625 14.625c-8.0625 0-14.625-6.5625-14.625-14.625s6.5625-14.625 14.625-14.625zm0 0"/><path d="m147.253906 136.625h32.667969c5.523437 0 10-4.476562 10-10s-4.476563-10-10-10h-32.667969c-5.523437 0-10 4.476562-10 10s4.476563 10 10 10zm0 0"/><path d="m332.332031 136.625h32.667969c5.523438 0 10-4.476562 10-10s-4.476562-10-10-10h-32.667969c-5.523437 0-10 4.476562-10 10s4.476563 10 10 10zm0 0"/><path d="m140.253906 237.503906c-5.523437 0-10 4.476563-10 10 0 5.523438 4.476563 10 10 10h231.746094c5.523438 0 10-4.476562 10-10 0-5.523437-4.476562-10-10-10zm0 0"/><path d="m186.582031 207.503906c0 5.523438 4.476563 10 10 10h119.089844c5.523437 0 10-4.476562 10-10 0-5.523437-4.476563-10-10-10h-119.089844c-5.523437 0-10 4.476563-10 10zm0 0"/><path d="m226.398438 283.011719-25.859376 26.007812-6.777343-7.5c-3.75-4.148437-9.070313-6.539062-14.707031-6.472656-5.597657.039063-10.925782 2.46875-14.621094 6.671875l-6.632813 7.539062-10.035156-11.410156c-3.648437-4.144531-9.96875-4.550781-14.113281-.902344-4.148438 3.644532-4.554688 9.964844-.90625 14.109376l10.300781 11.710937c3.726563 4.242187 9.105469 6.675781 14.75 6.675781 5.648437 0 11.027344-2.433594 14.753906-6.671875l6.636719-7.546875 6.761719 7.480469c3.597656 3.984375 8.742187 6.34375 14.105469 6.46875 5.371093.148437 10.617187-1.980469 14.402343-5.789063l26.125-26.269531c3.894531-3.917969 3.875-10.25-.039062-14.144531-3.917969-3.890625-10.25-3.875-14.144531.042969zm0 0"/><path d="m256.128906 64c2.628906 0 5.210938-1.070312 7.070313-2.929688 1.859375-1.859374 2.929687-4.441406 2.929687-7.070312s-1.070312-5.210938-2.929687-7.070312c-1.859375-1.859376-4.441407-2.929688-7.070313-2.929688s-5.210937 1.070312-7.070312 2.929688c-1.867188 1.859374-2.929688 4.441406-2.929688 7.070312s1.0625 5.210938 2.929688 7.070312c1.859375 1.859376 4.441406 2.929688 7.070312 2.929688zm0 0"/></svg>