<svg height="512" viewBox="0 0 512 512" width="512" xmlns="http://www.w3.org/2000/svg"><path d="m55.822 379.082c-10.6-13.583-23.327-36.967-23.812-71.226-.469-33.133 16.9-59.881 36.3-86.623 21.822-30.087 34.432-56.9 29.185-94.68a63.984 63.984 0 0 1 9.814 11.157c5.515 7.984 5.3 19.38 5.065 31.446-.384 20.028-.862 44.954 30.647 52.884 17.47 4.4 36.861-3.216 48.256-18.941 18.2-25.114 7.127-50.286-2.641-72.495-4.684-10.65-9.109-20.709-10.455-30.356-3-21.475.627-38.228 10.778-49.794 9.105-10.375 21.98-14.918 31.571-16.906-5.943 13.923-9.57 26.208-11.027 37.282-3.913 29.737 9.277 44.087 21.031 50.889 13.469 7.794 32.356 7.6 45.93-.468 16.977-10.092 21.846-31.313 14.379-60.82a100.845 100.845 0 0 1 15.057 15.369c20.607 26.5 8.945 52.144-4.56 81.835l-1.273 2.8c-10.446 23.024-11.244 43.018-2.307 57.818 6.832 11.316 19.556 18.99 33.206 20.026a48.013 48.013 0 0 0 35.911-12.842c13.32-12.267 20.108-31.684 18.624-53.271-.773-11.256-3.569-22.041-7.267-32.713 12.66 6.774 23.693 15.358 30.651 30.281 9.8 21.013 2.935 39.959-5.012 61.9-1.374 3.793-2.8 7.714-4.14 11.689-4.66 13.776-17.041 50.369 12.805 65.315 13.222 6.62 29.023 3.912 41.237-7.065a45.022 45.022 0 0 0 11.409-15.907 140.849 140.849 0 0 1 12.613 35.987c3.937 19.822 4.466 48.636-15.376 73.338l12.474 10.02c42.692-53.151 10.964-124.629-10.065-149.076a8 8 0 0 0 -13.558 8.017c3.547 9.493-1.558 19.758-8.192 25.72-2.743 2.466-12.535 10.089-23.378 4.659-12.189-6.1-13.628-19.824-4.812-45.88 1.29-3.814 2.681-7.654 4.026-11.367 8.389-23.157 17.063-47.1 4.47-74.109-12.625-27.078-35.959-37.457-56.546-46.615a8 8 0 0 0 -10.658 10.34c6.674 16.289 12.285 31.036 13.353 46.564 1.132 16.471-3.915 31.575-13.5 40.4a32.4 32.4 0 0 1 -23.859 8.658 26.743 26.743 0 0 1 -20.722-12.342c-7.692-12.739-2.516-30.381 3.181-42.938l1.267-2.788c14.342-31.533 29.173-64.14 2.626-98.28a125.119 125.119 0 0 0 -26.028-24.474c-1.042-.747-9.255-6.314-13.092-8.311a8 8 0 0 0 -11.109 10.1c6.3 15.558 18.914 52.959-.008 64.208-8.684 5.163-21.193 5.32-29.742.372-19.19-11.105-18.4-38.135 2.363-80.338a8 8 0 0 0 -1.516-9.181c-1.79-1.793-3.48-3.487-17.364-1.347a85.828 85.828 0 0 0 -25.187 7.8c-19.351 9.624-41.045 30.907-34.513 77.657 1.653 11.846 6.738 23.406 11.655 34.586 9.2 20.916 17.145 38.981 4.331 56.664-7.475 10.314-20.387 15.584-31.4 12.813-18.32-4.61-18.961-15.878-18.555-37.061.257-13.414.549-28.618-7.9-40.845-3.348-4.848-15.625-21.075-33.014-26.332a8 8 0 0 0 -9.729 10.665 46.4 46.4 0 0 1 2.651 8.358c7.336 36.747-3.62 61.021-25.024 90.531-20.2 27.855-39.882 58.231-39.343 96.244.548 38.7 15.091 65.322 27.194 80.839z"/><path d="m455.381 424.566a57.24 57.24 0 0 0 -17.181-32.981 53.14 53.14 0 0 0 -30.6-14.371 55.527 55.527 0 0 0 -15.629-32.439 56.843 56.843 0 0 0 -7.055-6.1 45.248 45.248 0 0 0 5.689-35.457 8 8 0 0 0 -5.821-5.821 45.25 45.25 0 0 0 -35.484 5.709 55.965 55.965 0 0 0 -45.3-23.106h-96a56.084 56.084 0 0 0 -55.5 48.493 56.051 56.051 0 0 0 -48.1 48.721 53.146 53.146 0 0 0 -30.6 14.371 57.24 57.24 0 0 0 -17.186 32.981 48.075 48.075 0 0 0 -40.614 47.434v16a8 8 0 0 0 8 8h464a8 8 0 0 0 8-8v-16a48.075 48.075 0 0 0 -40.619-47.434zm-79.481-112.461a29.3 29.3 0 0 1 -5.2 19.072 55.6 55.6 0 0 0 -11.2-2.684 55.465 55.465 0 0 0 -2.713-11.162 29.292 29.292 0 0 1 19.113-5.226zm104.1 167.895h-448v-8a32.036 32.036 0 0 1 32-32 8 8 0 0 0 8-7.844 41.121 41.121 0 0 1 12.788-28.936 36.987 36.987 0 0 1 26.912-10.309 8 8 0 0 0 8.3-8.144 40 40 0 0 1 40-40.767 8 8 0 0 0 8-8 40.045 40.045 0 0 1 40-40h96a40.045 40.045 0 0 1 40 40 8 8 0 0 0 8 8 40 40 0 0 1 39.993 40.767 8 8 0 0 0 8.3 8.144 36.982 36.982 0 0 1 26.916 10.309 41.121 41.121 0 0 1 12.791 28.936 8 8 0 0 0 8 7.844 32.036 32.036 0 0 1 32 32z"/><path d="m239.219 385.4a8 8 0 0 0 -5.821 5.821 45.713 45.713 0 0 0 44.144 56.779 46.324 46.324 0 0 0 11.239-1.393 8 8 0 0 0 5.821-5.821 45.67 45.67 0 0 0 -55.383-55.386zm40.681 46.5a29.7 29.7 0 0 1 -31.8-31.8 29.7 29.7 0 0 1 31.8 31.8z"/><path d="m280 320h16v16h-16z"/><path d="m208 336h16v16h-16z"/><path d="m112 432h16v16h-16z"/><path d="m146.343 381.657 18.344 18.343h-20.687v16h36.687l29.656 29.657 11.314-11.314-64-64z"/><path d="m384 440h16v16h-16z"/><path d="m64 272h16v32h-16z"/><path d="m216 216h16v32h-16z"/><path d="m432 336h16v32h-16z"/><path d="m320 376h16v32h-16z"/><path d="m456 160h16v32h-16z"/><path d="m32 160h16v32h-16z"/></svg>