<svg height="501pt" viewBox="0 -2 501.736 501" width="501pt" xmlns="http://www.w3.org/2000/svg"><path d="m486.9375 355.945312 14.796875-37.160156-7.429687-2.960937c-4.839844-1.929688-9.800782-3.082031-14.753907-3.609375.410157-.359375.839844-.6875 1.234375-1.054688 10.886719-10.25 17.136719-24.136718 17.582032-39.089844l1.199218-39.980468-8-.242188c-5.183594-.128906-10.253906.472656-15.132812 1.671875 7.078125-13.105469 9.015625-28.953125 3.992187-44.167969l-12.554687-37.984374-7.597656 2.511718c-4.953126 1.632813-9.480469 3.945313-13.617188 6.722656.078125-.539062.207031-1.066406.273438-1.601562 1.75-14.855469-2.394532-29.503906-11.664063-41.238281l-24.785156-31.402344-6.28125 4.953125c-4.464844 3.527344-8.238281 7.609375-11.320313 12.054688-3.34375-11.742188-10.167968-22.269532-20.039062-29.289063l-30.238282-21.484375-4.296874 7.980469c-13.519532 25.167969-6.570313 58.394531 15.511718 74.082031l5.960938 4.238281c-11.21875.738281-21.921875 4.785157-30.929688 11.890625l-6.28125 4.949219 24.777344 31.410156c5.25 6.648438 11.976562 11.902344 19.535156 15.582031l7.191406 21.761719c2.648438 8.03125 7.175782 15.28125 13.027344 21.3125l-.691406 22.917969c-.253906 8.457031 1.523438 16.816406 4.953125 24.488281l-8.488281 21.296875c-3.128906 7.871094-4.320313 16.328125-3.71875 24.703125l-15.265625 17.121094c-4.0625 4.558594-7.261719 9.695313-9.628907 15.230469l-25.402343 13.898437c-25.488281 13.941407-36.519531 44.589844-27.167969 71.503907-33.320312 9.613281-69.359375 9.605468-102.664062-.023438 9.335937-26.898438-1.6875-57.539062-27.175782-71.480469l-24.070312-13.175781c-2.402344-5.824219-5.6875-11.203125-9.9375-15.960938l-15.253906-17.121093c.597656-8.375-.59375-16.832031-3.722657-24.703125l-8.488281-21.296875c3.433594-7.671875 5.199219-16.03125 4.953125-24.488281l-.6875-22.917969c5.839844-6.03125 10.367187-13.28125 13.023437-21.3125l7.191407-21.769531c7.550781-3.671876 14.28125-8.925782 19.527343-15.574219l24.777344-31.410157-6.28125-4.949218c-9.007812-7.113282-19.71875-11.152344-30.933594-11.890625l5.964844-4.238281c22.082032-15.6875 29.035156-48.914063 15.515625-74.082032l-4.296875-7.980468-30.242187 21.484374c-9.871094 7.019532-16.695313 17.554688-20.039063 29.289063-3.078125-4.457031-6.855468-8.535156-11.320312-12.054687l-6.28125-4.953126-24.78125 31.402344c-9.265625 11.734375-13.410156 26.382813-11.65625 41.238282.0625.542968.191406 1.0625.269531 1.601562-4.125-2.777344-8.664063-5.082031-13.613281-6.722656l-7.601563-2.511719-12.550781 37.984375c-5.023438 15.214844-3.097656 31.054688 3.976562 44.152344-4.875-1.191406-9.929687-1.785156-15.121093-1.648438l-8 .242188 1.199219 39.980468c.449218 14.953126 6.695312 28.832032 17.585937 39.089844.390625.367188.808594.679688 1.207031 1.03125-4.984375.542969-9.9375 1.71875-14.726562 3.632813l-7.433594 2.960937 14.800781 37.160156c5.941407 14.910157 17.671875 25.734376 31.535157 31.207032-4.558594 2.222656-8.863282 5.046875-12.75 8.519531l-5.976563 5.320313 26.636719 29.855468c9.953125 11.167969 23.664062 17.792969 38.59375 18.648438.152344.007812.304687.007812.449218.015625-3.601562 3.824219-6.753906 8.128906-9.289062 12.921875l-3.6875 6.972656 36.351562 19.890625c8.601563 4.703125 18.015626 7.09375 27.519532 7.09375 5.542968 0 11.128906-.816406 16.585937-2.453125 12.671875-3.808594 23.40625-11.707031 30.902344-22.496094 18.96875 5.824219 38.671875 8.925782 58.734375 8.925782 20.042969 0 39.714844-3.101563 58.664062-8.910157 7.496094 10.773438 18.226563 18.671875 30.898438 22.472657 5.464844 1.636718 11.03125 2.453124 16.574219 2.453124 9.503906 0 18.921875-2.390624 27.519531-7.09375l36.351562-19.890624-3.6875-6.972657c-2.527343-4.777343-5.671874-9.074219-9.261718-12.890625.480468-.015625.96875-.015625 1.445312-.039062 14.9375-.855469 28.640625-7.480469 38.59375-18.640625l26.625-29.855469-5.976562-5.320312c-3.9375-3.511719-8.25-6.3125-12.777344-8.511719 13.882812-5.480469 25.617188-16.304688 31.5625-31.222657zm-302.3125 93.796876-21.816406-11.34375c-18.113282-9.917969-26.234375-31.453126-20.28125-50.757813l21.648437 11.839844c17.96875 9.832031 26.105469 31.09375 20.449219 50.261719zm-86.359375-170.085938-1.640625.65625c-12.480469 4.976562-22.183594 13.96875-28.226562 24.894531l-.574219-19.054687c-.320313-10.679688 3.535156-20.839844 10.863281-28.625 5.464844-5.800782 12.359375-9.75 19.953125-11.511719l.695313 23.191406c.113281 3.527344-.265626 7.039063-1.070313 10.449219zm6.992187 52.136719c-9.753906 8.695312-16.035156 20.246093-18.042968 32.976562l-7.023438-17.640625c-7.152344-17.9375-.34375-38.050781 15.222656-48.25l8.585938 21.546875c1.3125 3.285157 2.167969 6.71875 2.566406 10.191407zm25.628907 42.230469c-6.6875 13.472656-7.789063 28.375-4.125 41.984374l-14.089844-15.808593c-7.113281-7.976563-10.6875-18.238281-10.078125-28.910157.453125-7.945312 3.199219-15.417968 7.871094-21.640624l15.4375 17.320312c1.953125 2.175781 3.578125 4.558594 4.984375 7.054688zm-18.414063-154.550782c-1.105468 3.351563-2.65625 6.527344-4.585937 9.457032l-1.757813.046874c-13.058594.390626-25.296875 5.199219-35.015625 13.664063l5.949219-18.023437c3.351562-10.144532 10.457031-18.378907 20-23.175782 7.113281-3.585937 14.953125-4.960937 22.679688-4zm29.359375-42.25c-2.191406 2.777344-4.734375 5.234375-7.542969 7.320313l-1.664062-.550781c-12.402344-4.105469-25.554688-3.769532-37.585938.863281l11.769532-14.902344c6.617187-8.386719 16.101562-13.695313 26.71875-14.945313 7.90625-.9375 15.746094.488282 22.6875 3.992188zm-3.671875-90.09375 14.632813-10.402344c4.6875 16.648438-.777344 35.394532-14.144531 44.882813l-14.632813 10.398437c-4.6875-16.648437.785156-35.390624 14.144531-44.878906zm-59.136718 40.535156 14.375-18.199218c12.007812 14.207031 12.800781 35.429687.839843 50.589844l-14.382812 18.210937c-5.03125-5.9375-8.222657-13.226563-9.160157-21.144531-1.246093-10.601563 1.710938-21.066406 8.328126-29.457032zm-42.511719 66.703126 7.273437-22.023438c16.152344 9.257812 24.152344 28.921875 18.085938 47.257812l-7.277344 22.03125c-16.144531-9.257812-24.144531-28.921874-18.082031-47.265624zm-17.136719 77.226562-.695312-23.195312c7.671874 1.3125 14.808593 4.847656 20.601562 10.3125 7.773438 7.320312 12.238281 17.242187 12.558594 27.921874l.695312 23.183594c-7.671875-1.304687-14.800781-4.839844-20.597656-10.304687-7.785156-7.3125-12.242188-17.238281-12.5625-27.917969zm10.304688 78.429688-8.582032-21.550782c7.664063-1.402344 15.558594-.511718 22.886719 2.640625 9.816406 4.214844 17.390625 12.015625 21.34375 21.933594l8.582031 21.554687c-18.335937 3.300782-37.085937-6.632812-44.230468-24.578124zm36.511718 70.175781-15.4375-17.320313c6.71875-3.925781 14.4375-5.832031 22.40625-5.351562 10.664063.609375 20.457032 5.34375 27.566406 13.3125l15.441407 17.328125c-6.71875 3.929687-14.40625 5.824219-22.40625 5.34375-10.671875-.609375-20.457031-5.328125-27.570313-13.3125zm89.976563 58.410156c-10.703125 3.199219-21.992188 2.015625-31.824219-3.351563l-21.886719-11.984374c5.335938-6.753907 12.535157-11.6875 20.871094-14.183594 10.6875-3.226563 21.976563-2.019532 31.792969 3.34375l22.152344 11.519531c-5.363282 6.957031-12.609376 12.101563-21.105469 14.65625zm239.015625-147.992187c.410156-3.480469 1.265625-6.914063 2.570312-10.191407l8.582032-21.546875c15.566406 10.199219 22.375 30.3125 15.222656 48.25l-7.046875 17.703125c-1.945313-12.335937-7.984375-24.105469-18.015625-33.039062zm7.230468-61.417969.699219-23.191407c7.582031 1.769532 14.488281 5.71875 19.949219 11.511719 7.328125 7.785157 11.183594 17.945313 10.867188 28.625l-.578126 19.046875c-6.046874-10.925781-15.742187-19.917968-28.222656-24.894531l-1.640625-.65625c-.808593-3.394531-1.175781-6.90625-1.074219-10.441406zm79.96875 2.394531c-.320312 10.679688-4.78125 20.597656-12.558593 27.917969-5.800781 5.464843-12.929688 9-20.601563 10.304687l.699219-23.183594c.316406-10.679687 4.78125-20.601562 12.558594-27.921874 5.800781-5.464844 12.925781-9 20.597656-10.3125zm-24.414062-99.25 7.269531 22.023438c6.066407 18.34375-1.933593 38.007812-18.085937 47.265624l-7.28125-22.03125c-6.054688-18.335937 1.945312-38 18.097656-47.257812zm-49.617188-62.878906 14.367188 18.199218c6.625 8.390626 9.578125 18.847657 8.328125 29.464844-.933594 7.910156-4.117187 15.199219-9.160156 21.144532l-14.375-18.210938c-11.960938-15.175781-11.167969-36.390625.839843-50.597656zm-59.390624-32.738282 14.632812 10.402344c13.359375 9.496094 18.832031 28.230469 14.140625 44.878906l-14.628906-10.398437c-13.371094-9.488281-18.839844-28.234375-14.144531-44.882813zm-3.410157 82.28125c6.953125-3.503906 14.808594-4.917968 22.6875-3.992187 10.617188 1.25 20.105469 6.558594 26.722657 14.945313l11.765624 14.902343c-12.023437-4.632812-25.175781-4.976562-37.589843-.871093l-1.671875.550781c-2.808594-2.085938-5.351563-4.542969-7.535156-7.320313zm59.136719 42.433594c9.542969 4.804688 16.648438 13.039063 20 23.175782l5.953125 18.023437c-9.71875-8.464844-21.960937-13.28125-35.015625-13.664063l-1.761719-.046874c-1.925781-2.929688-3.472656-6.105469-4.574219-9.457032l-7.28125-22.03125c7.734376-.960937 15.558594.414063 22.679688 4zm-13.398438 148.207032c4.671876 6.222656 7.414063 13.695312 7.871094 21.640624.617188 10.671876-2.96875 20.933594-10.082031 28.910157l-15.460937 17.351562c4.054687-13.628906 3.175781-28.703125-3.265626-42.382812 1.519532-2.910157 3.265626-5.703125 5.496094-8.207031zm-54.738281 49.839843 21.648438-11.839843c5.960937 19.304687-2.167969 40.847656-20.296875 50.765624l-21.796875 11.339844c-5.65625-19.179687 2.480469-40.433594 20.445312-50.265625zm39.832031 75.769531c-9.824218 5.367188-21.109374 6.558594-31.816406 3.351563-8.496094-2.554687-15.75-7.699219-21.109375-14.65625l22.167969-11.539063c9.816406-5.359374 21.101562-6.535156 31.78125-3.335937 8.328125 2.507813 15.53125 7.441406 20.859375 14.1875zm59.175782-55.058593c-7.109375 7.976562-16.894532 12.703125-27.566406 13.3125-7.984376.472656-15.6875-1.421875-22.40625-5.34375l15.4375-17.328125c7.113281-7.96875 16.898437-12.703125 27.570312-13.3125 8-.472656 15.6875 1.425781 22.40625 5.351562zm-7.71875-45.597657 8.585937-21.554687c7.148438-17.941406 25.917969-27.886719 44.230469-24.566406l-8.585938 21.542969c-7.148437 17.945312-25.902343 27.871093-44.230468 24.578124zm0 0"/><path d="m178.40625 248.367188c0 39.703124 32.304688 72 72 72 39.699219 0 72-32.296876 72-72 0-39.703126-32.300781-72-72-72-39.695312 0-72 32.296874-72 72zm128 0c0 30.871093-25.117188 56-56 56-30.878906 0-56-25.128907-56-56 0-30.871094 25.121094-56 56-56 30.882812 0 56 25.128906 56 56zm0 0"/><path d="m220.753906 226.710938 11.308594 11.3125 10.34375-10.34375v60.6875h16v-80h-19.308594zm0 0"/><path d="m226.40625 123.480469v23.792969c-45.789062 10.878906-80 52.023437-80 101.09375 0 57.34375 46.65625 104 104 104 57.347656 0 104-46.65625 104-104 0-49.070313-34.207031-90.214844-80-101.09375v-23.792969c23.769531-9.695313 40-33.082031 40-59.113281 0-35.289063-28.710938-64-64-64-35.285156 0-64 28.710937-64 64 0 26.039062 16.234375 49.417968 40 59.113281zm112 124.886719c0 48.519531-39.476562 88-88 88-48.519531 0-88-39.480469-88-88 0-48.519532 39.480469-88 88-88 48.523438 0 88 39.480468 88 88zm-88-104c-2.703125 0-5.351562.199218-8 .410156v-64.410156h16v64.410156c-2.644531-.210938-5.292969-.410156-8-.410156zm0-128c26.472656 0 48 21.527343 48 48 0 17.25-9.519531 32.921874-24 41.394531v-25.394531c0-8.824219-7.175781-16-16-16h-16c-8.820312 0-16 7.175781-16 16v25.394531c-14.476562-8.472657-24-24.144531-24-41.394531 0-26.472657 21.53125-48 48-48zm0 0"/></svg>