<svg height="512pt" viewBox="-9 0 512 512" width="512pt" xmlns="http://www.w3.org/2000/svg"><path d="m383.972656 127.15625c-4.707031 0-8.53125-3.824219-8.53125-8.535156v-23.117188c0-5.304687-1.671875-11.015625-5.25-17.960937-2.175781-4.222657-3.285156-8.78125-3.285156-13.542969 0-9.96875 4.941406-19.234375 13.226562-24.804688 8.457032-5.675781 18.9375-6.640624 28.742188-2.636718 4.359375 1.773437 6.460938 6.757812 4.675781 11.125-1.785156 4.371094-6.773437 6.460937-11.128906 4.675781-6.109375-2.492187-10.632813-.441406-12.773437 1-3.550782 2.390625-5.675782 6.375-5.675782 10.640625 0 2.015625.460938 3.941406 1.382813 5.71875 4.882812 9.453125 7.152343 17.644531 7.152343 25.785156v23.117188c0 4.71875-3.824218 8.535156-8.535156 8.535156zm0 0"/><path d="m452.242188 128c-4.710938 0-8.535157-3.824219-8.535157-8.535156v-25.597656c0-4.710938 3.824219-8.535157 8.535157-8.535157 4.710937 0 8.53125 3.824219 8.53125 8.535157v25.597656c0 4.710937-3.820313 8.535156-8.53125 8.535156zm0 0"/><path d="m486.375 187.734375c-4.710938 0-8.535156-3.824219-8.535156-8.535156v-50.492188c0-13.925781-5.871094-26.308593-8.53125-26.308593-4.710938 0-8.535156-3.820313-8.535156-8.53125 0-4.710938 3.824218-8.535157 8.535156-8.535157 18.875 0 25.285156 27.367188 25.589844 41.625.007812.148438.007812.300781.007812.445313v51.796875c0 4.710937-3.820312 8.535156-8.53125 8.535156zm0 0"/><path d="m418.109375 137.820312c-4.710937 0-8.535156-3.820312-8.535156-8.53125v-16.71875c0-5.304687-1.671875-11.015624-5.246094-17.960937-2.175781-4.222656-3.285156-8.78125-3.285156-13.542969 0-8.421875 3.582031-16.503906 9.835937-22.152344 6.246094-5.65625 14.652344-8.378906 23.082032-7.558593 4.6875.46875 8.109374 4.648437 7.640624 9.34375-.472656 4.683593-4.644531 8.097656-9.34375 7.636719-3.6875-.375-7.210937.777343-9.925781 3.222656-2.679687 2.425781-4.214843 5.890625-4.214843 9.5 0 2.011718.460937 3.941406 1.382812 5.71875 4.878906 9.453125 7.148438 17.644531 7.148438 25.785156v16.71875c-.007813 4.726562-3.832032 8.539062-8.539063 8.539062zm0 0"/><path d="m452.242188 128c-4.710938 0-8.535157-3.824219-8.535157-8.535156v-25.597656c0-4.710938 3.824219-8.535157 8.535157-8.535157 4.710937 0 8.53125 3.824219 8.53125 8.535157v25.597656c0 4.710937-3.820313 8.535156-8.53125 8.535156zm0 0"/><path d="m460.058594 157.867188c-1.316406 0-2.644532-.308594-3.902344-.949219l-24.890625-12.796875c-.109375-.054688-20.265625-10.019532-49.347656-17.214844-4.574219-1.132812-7.363281-5.757812-6.230469-10.332031 1.136719-4.574219 5.753906-7.363281 10.335938-6.230469 31.027343 7.671875 52.085937 18.117188 52.964843 18.550781l24.976563 12.84375c4.191406 2.152344 5.847656 7.296875 3.6875 11.496094-1.519532 2.941406-4.503906 4.632813-7.59375 4.632813zm0 0"/><path d="m324.242188 76.800781c-4.191407 0-7.679688-3.023437-8.398438-7.007812-1.808594-.851563-5.90625-1.527344-8.667969-1.527344-4.710937 0-8.535156-3.820313-8.535156-8.53125s3.824219-8.535156 8.535156-8.535156c11.808594 0 25.597657 4.472656 25.597657 17.066406 0 4.710937-3.820313 8.535156-8.53125 8.535156zm-7.773438-6.621093h.082031zm0 0"/><path d="m145.066406 120.984375c-4.710937 0-8.53125-3.820313-8.53125-8.53125v-34.015625c0-8.140625 2.269532-16.332031 7.148438-25.785156.921875-1.777344 1.382812-3.707032 1.382812-5.71875 0-4.265625-2.125-8.253906-5.675781-10.640625-2.140625-1.441407-6.664063-3.492188-12.773437-1-4.351563 1.777343-9.34375-.316407-11.117188-4.675781-1.785156-4.367188.3125-9.34375 4.675781-11.128907 9.8125-4 20.28125-3.035156 28.738281 2.636719 8.277344 5.574219 13.21875 14.839844 13.21875 24.808594 0 4.769531-1.101562 9.316406-3.285156 13.542968-3.574218 6.945313-5.246094 12.652344-5.246094 17.960938v34.007812c0 4.71875-3.824218 8.539063-8.535156 8.539063zm0 0"/><path d="m110.933594 127.15625c-4.710938 0-8.535156-3.824219-8.535156-8.535156v-23.117188c0-8.140625 2.269531-16.332031 7.152343-25.785156.921875-1.777344 1.382813-3.703125 1.382813-5.71875 0-4.265625-2.125-8.25-5.675782-10.640625-2.148437-1.441406-6.664062-3.492187-12.773437-1-4.359375 1.785156-9.34375-.304687-11.128906-4.675781-1.78125-4.367188.316406-9.34375 4.675781-11.125 9.804688-4.011719 20.292969-3.039063 28.742188 2.636718 8.285156 5.570313 13.226562 14.835938 13.226562 24.804688 0 4.769531-1.101562 9.320312-3.285156 13.542969-3.574219 6.945312-5.25 12.65625-5.25 17.960937v23.117188c0 4.71875-3.820313 8.535156-8.53125 8.535156zm0 0"/><path d="m42.667969 128c-4.710938 0-8.535157-3.824219-8.535157-8.535156v-25.597656c0-4.710938 3.824219-8.535157 8.535157-8.535157 4.710937 0 8.53125 3.824219 8.53125 8.535157v25.597656c0 4.710937-3.820313 8.535156-8.53125 8.535156zm0 0"/><path d="m8.535156 187.734375c-4.710937 0-8.535156-3.824219-8.535156-8.535156v-51.796875c0-.289063.015625-.570313.0429688-.863282.5781252-15.109374 7.1250002-41.207031 25.5585932-41.207031 4.707032 0 8.53125 3.824219 8.53125 8.535157 0 4.710937-3.824218 8.53125-8.53125 8.53125-2.664062 0-8.535156 12.375-8.535156 25.601562v51.199219c0 4.710937-3.824218 8.535156-8.53125 8.535156zm0 0"/><path d="m76.800781 137.820312c-4.710937 0-8.535156-3.820312-8.535156-8.53125v-16.71875c0-8.140624 2.269531-16.332031 7.152344-25.785156.921875-1.777344 1.382812-3.703125 1.382812-5.71875 0-3.609375-1.535156-7.074218-4.214843-9.496094-2.722657-2.457031-6.257813-3.609374-9.933594-3.234374-4.726563.46875-8.875-2.953126-9.34375-7.636719-.46875-4.695313 2.941406-8.875 7.636718-9.34375 8.421876-.839844 16.835938 1.902343 23.082032 7.558593 6.253906 5.648438 9.839844 13.730469 9.839844 22.152344 0 4.769532-1.101563 9.320313-3.285157 13.542969-3.574219 6.945313-5.25 12.65625-5.25 17.960937v16.71875c0 4.71875-3.820312 8.53125-8.53125 8.53125zm0 0"/><path d="m42.667969 128c-4.710938 0-8.535157-3.824219-8.535157-8.535156v-25.597656c0-4.710938 3.824219-8.535157 8.535157-8.535157 4.710937 0 8.53125 3.824219 8.53125 8.535157v25.597656c0 4.710937-3.820313 8.535156-8.53125 8.535156zm0 0"/><path d="m118.664062 512c-26.171874 0-59.953124-9.199219-76.289062-35.011719-8.710938-13.765625-8.675781-28.246093-8.644531-42.25l-.007813-5.453125c-.109375-12.757812.035156-25.511718.179688-38.269531.121094-9.558594.230468-19.125.230468-28.699219v-24.585937c0-31.757813-3.386718-56.984375-10.667968-79.367188-3.207032-9.882812-6.578125-18.96875-9.828125-27.757812-7.058594-19.046875-13.148438-35.5-13.507813-49.878907-.0703122-.210937-.128906-.851562-.128906-1.527343v-51.796875c0-.144532 0-.296875.0078125-.445313.3085935-14.257812 6.7148435-41.625 25.5937495-41.625.074219 0 4.164063.011719 8.53125.09375v-4.359375c0-16.46875 13.398438-29.867187 29.867188-29.867187 2.304688 0 4.574219.265625 6.792969.792969 4.625-10.511719 15.144531-17.859376 27.339843-17.859376 2.304688 0 4.574219.265626 6.792969.792969 4.625-10.511719 15.148438-17.859375 27.339844-17.859375 3.960937 0 7.824219.777344 11.402344 2.269532 7.765625-11.871094 21.035156-19.335938 35.53125-19.335938 23.527343 0 42.667969 19.140625 42.667969 42.667969v56.863281c13.074218 31.71875 11.042968 84.976562-4.703126 117.515625-8.941406 18.480469-14.863281 40.070313-18.644531 67.921875-1.714843 12.65625-2.832031 25.226562-3.78125 36.910156-3.265625 40.445313-2.773437 79.460938 1.46875 115.976563.128907 1.515625 2.21875 30.386719-17.636719 51.90625-13.59375 14.761719-33.75 22.238281-59.90625 22.238281zm-101.597656-383.292969.109375 51.167969c.316407 11.972656 5.949219 27.1875 12.46875 44.800781 3.15625 8.53125 6.742188 18.199219 10.0625 28.414063 7.839844 24.140625 11.492188 51.039062 11.492188 84.640625v24.585937c0 9.625-.109375 19.261719-.222657 28.894532-.144531 12.636718-.289062 25.285156-.175781 37.921874l.007813 5.640626c-.027344 12.621093-.050782 23.527343 5.996094 33.082031 12.632812 19.96875 40.238281 27.078125 61.859374 27.078125 21.1875 0 37.121094-5.632813 47.359376-16.726563 14.839843-16.09375 13.21875-38.441406 13.203124-38.664062-4.34375-37.324219-4.855468-77.464844-1.503906-119.023438.964844-11.929687 2.109375-24.761719 3.875-37.828125 4.027344-29.6875 10.445313-52.914062 20.199219-73.0625 13.679687-28.269531 15.453125-78.273437 3.71875-104.898437-.46875-1.101563-.714844-2.269531-.714844-3.457031v-58.605469c0-14.117188-11.488281-25.601563-25.601562-25.601563-10.792969 0-20.460938 6.972656-24.0625 17.347656-.957031 2.757813-3.25 4.832032-6.085938 5.503907-2.824219.683593-5.820312-.136719-7.910156-2.15625-2.414063-2.339844-5.570313-3.628907-8.875-3.628907-7.054687 0-12.800781 5.742188-12.800781 12.800782 0 3.207031-1.796875 6.152344-4.664063 7.601562-2.859375 1.453125-6.300781 1.1875-8.894531-.707031-1.644531-1.203125-4.332031-2.628906-7.773438-2.628906-7.054687 0-12.800781 5.742187-12.800781 12.800781 0 3.207031-1.800781 6.152344-4.667969 7.601562-2.855468 1.453126-6.296874 1.179688-8.890624-.707031-1.648438-1.203125-4.335938-2.628906-7.773438-2.628906-7.058594 0-12.800781 5.742187-12.800781 12.800781v12.800782c0 2.558593-1.152344 5.195312-3.132813 6.816406-1.976562 1.621094-4.589844 2.484375-7.089844 1.972656-1.296874-.09375-13.089843-.257812-15.375-.257812-2.664062 0-8.535156 12.375-8.535156 25.601562zm0 0"/><path d="m34.851562 157.867188c-3.097656 0-6.085937-1.691407-7.597656-4.625-2.148437-4.191407-.5-9.335938 3.6875-11.496094l24.890625-12.800782c2.246094-1.125 53.789063-26.546874 114.835938-26.546874 4.710937 0 8.53125 3.824218 8.53125 8.535156 0 4.710937-3.820313 8.53125-8.53125 8.53125-57.0625 0-106.625 24.457031-107.121094 24.707031l-24.804687 12.757813c-1.246094.628906-2.578126.9375-3.890626.9375zm0 0"/><path d="m170.667969 76.800781c-4.710938 0-8.535157-3.824219-8.535157-8.535156 0-12.59375 13.789063-17.066406 25.601563-17.066406 4.710937 0 8.53125 3.824219 8.53125 8.535156s-3.8125 8.53125-8.523437 8.53125c-3.097657.019531-6.972657.726563-8.679688 1.535156-.722656 3.976563-4.207031 7-8.394531 7zm0 0"/><path d="m184.429688 403.140625c-3.316407 0-6.476563-1.953125-7.859376-5.195313l-19.035156-44.734374c-16.230468-40.328126-12.035156-71.507813-11.84375-72.824219.664063-4.65625 5-7.875 9.648438-7.234375 4.660156.664062 7.902344 4.972656 7.246094 9.632812-.058594.46875-3.59375 28.347656 10.71875 63.898438l18.976562 44.578125c1.84375 4.335937-.171875 9.34375-4.515625 11.195312-1.089844.460938-2.226563.683594-3.335937.683594zm0 0"/><path d="m76.800781 238.933594c-4.710937 0-8.535156-3.824219-8.535156-8.535156 0-4.707032 3.824219-8.53125 8.535156-8.53125 36.460938 0 51.660157-36.933594 51.8125-37.308594 1.007813-2.507813 3.132813-4.394532 5.753907-5.078125 2.601562-.699219 5.390624-.101563 7.507812 1.589843 29.695312 23.753907 59.417969 9.753907 70.828125 2.625 4-2.488281 9.257813-1.277343 11.757813 2.714844 2.492187 3.992188 1.28125 9.257813-2.714844 11.757813-10.496094 6.554687-45.679688 24.773437-82.105469 2.195312-8.328125 14.027344-27.878906 38.570313-62.839844 38.570313zm0 0"/><path d="m332.78125 221.867188c-3.035156 0-5.980469-1.621094-7.515625-4.488282l-59.734375-110.933594c-2.234375-4.148437-.683594-9.328124 3.464844-11.554687 4.15625-2.234375 9.328125-.675781 11.554687 3.464844l59.734375 110.933593c2.234375 4.148438.679688 9.328126-3.464844 11.554688-1.289062.699219-2.671874 1.023438-4.039062 1.023438zm0 0"/><path d="m392.507812 477.867188h-119.464843c-4.710938 0-8.535157-3.824219-8.535157-8.535157v-273.066406c0-2.753906 1.332032-5.339844 3.574219-6.945313l59.734375-42.667968c2.96875-2.113282 6.953125-2.113282 9.925782 0l59.730468 42.667968c2.246094 1.605469 3.578125 4.191407 3.578125 6.945313v273.066406c-.007812 4.710938-3.832031 8.535157-8.542969 8.535157zm-110.933593-17.066407h102.398437v-260.140625l-51.199218-36.574218-51.199219 36.574218zm0 0"/><path d="m344.730469 170.667969c-.28125 0-.574219-.011719-.863281-.042969-4.691407-.46875-8.105469-4.652344-7.644532-9.34375l5.121094-51.203125-.042969-31.640625c0-5.308594-1.675781-11.015625-5.25-17.960938-2.175781-4.226562-3.285156-8.78125-3.285156-13.542968 0-9.96875 4.941406-19.234375 13.226563-24.808594 8.449218-5.671875 18.925781-6.628906 28.742187-2.636719 4.359375 1.777344 6.457031 6.761719 4.675781 11.128907-1.785156 4.371093-6.769531 6.460937-11.128906 4.675781-6.109375-2.492188-10.632812-.441407-12.773438 1-3.542968 2.386719-5.667968 6.375-5.667968 10.640625 0 2.011718.460937 3.941406 1.382812 5.71875 4.882813 9.453125 7.152344 17.644531 7.152344 25.785156v32.496094l-5.164062 52.054687c-.441407 4.394531-4.144532 7.679688-8.480469 7.679688zm0 0"/><path d="m376.242188 512c-44.015626 0-62.882813-21.289062-70.945313-39.152344-1.195313-2.636718-.964844-5.699218.605469-8.140625 1.570312-2.429687 4.265625-3.90625 7.167968-3.90625h70.914063v-260.140625l-51.203125-36.574218-49.695312 35.5c-2.296876 1.628906-5.25 2.03125-7.894532 1.066406-2.644531-.964844-4.640625-3.183594-5.332031-5.914063-8.160156-32.101562-6.8125-70.867187 3.199219-95.207031v-56.863281c0-23.527344 19.140625-42.667969 42.667968-42.667969 14.496094 0 27.765626 7.464844 35.53125 19.335938 3.558594-1.492188 7.421876-2.269532 11.382813-2.269532 12.195313 0 22.714844 7.347656 27.339844 17.859375 2.21875-.527343 4.5-.792969 6.792969-.792969 12.195312 0 22.714843 7.347657 27.339843 17.859376 2.21875-.527344 4.5-.792969 6.792969-.792969 16.472656 0 29.867188 13.398437 29.867188 29.867187v4.359375c4.371093-.082031 8.457031-.09375 8.535156-.09375 19.34375 0 25.597656 28.75 25.597656 42.667969v51.199219c0 .394531-.09375 1.570312-.152344 1.953125-.339844 13.953125-6.433594 30.398437-13.492187 49.445312-3.257813 8.789063-6.621094 17.875-9.828125 27.757813-7.28125 22.390625-10.667969 47.605469-10.667969 79.367187v24.585938c0 9.566406.109375 19.132812.222656 28.707031.144531 12.757813.289063 25.503906.179688 38.261719l-.007813 5.453125c.03125 14.003906.066406 28.484375-8.644531 42.25-16.324219 25.820312-50.109375 35.019531-76.273437 35.019531zm-47.605469-34.132812c10.222656 11.339843 26.164062 17.066406 47.597656 17.066406 21.625 0 49.238281-7.109375 61.867187-27.066406 6.050782-9.566407 6.023438-20.464844 6-33.085938l.007813-5.640625c.109375-12.636719-.035156-25.285156-.179687-37.921875-.109376-9.625-.222657-19.257812-.222657-28.894531v-24.582031c0-33.605469 3.652344-60.503907 11.496094-84.644532 3.320313-10.214844 6.902344-19.882812 10.058594-28.414062 6.527343-17.613282 12.160156-32.828125 12.453125-44.367188.007812-.324218.09375-1.160156.132812-1.476562l-.007812-50.132813c0-13.917969-5.871094-26.289062-8.53125-26.289062-2.289063 0-14.082032.160156-15.898438.347656-2.515625.511719-4.855468-.179687-6.835937-1.800781s-2.867188-4.085938-2.867188-6.644532v-13.253906c0-7.058594-5.742187-12.800781-12.800781-12.800781-3.4375 0-6.125 1.425781-7.773438 2.628906-2.59375 1.894531-6.039062 2.167969-8.890624.707031-2.859376-1.449218-4.667969-4.394531-4.667969-7.601562 0-7.058594-5.742188-12.800781-12.800781-12.800781-3.4375 0-6.125 1.425781-7.773438 2.628906-2.59375 1.894531-6.03125 2.167969-8.890625.707031-2.859375-1.449218-4.667969-4.394531-4.667969-7.601562 0-7.058594-5.742187-12.800782-12.800781-12.800782-3.300781 0-6.460937 1.289063-8.875 3.617188-2.089844 2.023438-5.078125 2.84375-7.910156 2.160156s-5.128907-2.746094-6.082031-5.503906c-3.59375-10.367188-13.269532-17.339844-24.066407-17.339844-14.113281 0-25.597656 11.484375-25.597656 25.601563v58.605469c0 1.1875-.25 2.355468-.726563 3.4375-7.851562 17.820312-9.875 47.054687-5.574218 73.371093l44.007812-31.4375c2.96875-2.117187 6.953125-2.117187 9.925782 0l59.730468 42.667969c2.246094 1.605469 3.578125 4.1875 3.578125 6.945312v273.066407c0 4.710937-3.824219 8.535156-8.535156 8.535156h-63.878906zm0 0"/><path d="m349.867188 341.332031h-34.132813c-4.710937 0-8.535156-3.820312-8.535156-8.53125v-51.199219c0-4.710937 3.824219-8.535156 8.535156-8.535156h34.132813c4.710937 0 8.53125 3.824219 8.53125 8.535156v51.199219c0 4.710938-3.820313 8.53125-8.53125 8.53125zm-25.601563-17.066406h17.066406v-34.132813h-17.066406zm0 0"/><path d="m349.867188 443.734375h-34.132813c-4.710937 0-8.535156-3.824219-8.535156-8.535156v-51.199219c0-4.710938 3.824219-8.535156 8.535156-8.535156h34.132813c4.710937 0 8.53125 3.824218 8.53125 8.535156v51.199219c0 4.710937-3.820313 8.535156-8.53125 8.535156zm-25.601563-17.066406h17.066406v-34.132813h-17.066406zm0 0"/><path d="m332.773438 256c-18.824219 0-34.132813-15.308594-34.132813-34.132812 0-18.824219 15.308594-34.132813 34.132813-34.132813 18.824218 0 34.132812 15.308594 34.132812 34.132813 0 18.824218-15.308594 34.132812-34.132812 34.132812zm0-51.199219c-9.410157 0-17.066407 7.652344-17.066407 17.066407 0 9.410156 7.65625 17.066406 17.066407 17.066406 9.414062 0 17.066406-7.65625 17.066406-17.066406 0-9.414063-7.652344-17.066407-17.066406-17.066407zm0 0"/></svg>