<svg id="Layer_3" enable-background="new 0 0 64 64" height="512" viewBox="0 0 64 64" width="512" xmlns="http://www.w3.org/2000/svg"><path d="m56 1h-48c-.553 0-1 .448-1 1v60c0 .552.447 1 1 1h48c.553 0 1-.448 1-1v-60c0-.552-.447-1-1-1zm-24.153 56-2.548-15.287 1.994 1.994c.195.195.451.293.707.293s.512-.098.707-.293l1.994-1.994-2.548 15.287zm-10.019-29.586c-1.179-1.179-1.828-2.746-1.828-4.414s.649-3.235 1.828-4.414l.758-.758c1.18-1.179 2.747-1.828 4.414-1.828h10c1.667 0 3.234.649 4.414 1.828l.758.758c1.179 1.179 1.828 2.746 1.828 4.414s-.649 3.235-1.828 4.414l-1.172 1.172v-3.586c0-.552-.447-1-1-1h-.758c-2.469 0-4.789-.961-6.535-2.707-.391-.391-1.023-.391-1.414 0-1.746 1.746-4.066 2.707-6.535 2.707h-.758c-.553 0-1 .448-1 1v3.586zm3.172 1.586v-3.002c2.591-.055 5.037-.981 7-2.64 1.963 1.659 4.409 2.585 7 2.64v3.002c0 3.86-3.141 7-7 7s-7-3.14-7-7zm12.052 22.316.758 2.275-3.443 2.296 2.269-13.611 4.003 4.671-3.345 3.345c-.269.269-.362.665-.242 1.024zm-5.052-13.316c.688 0 1.356-.085 2-.232v1.818l-2 2-2-2v-1.818c.644.147 1.312.232 2 .232zm-5.293 12.293-3.345-3.345 4.003-4.671 2.269 13.611-3.443-2.296.758-2.275c.119-.36.026-.756-.242-1.024zm-5.466-3.944c-.341.397-.317.988.052 1.358l3.562 3.563-.804 2.414c-.143.428.019.898.394 1.148l3.252 2.168h-8.697v-10.171c0-1.557.606-3.021 1.707-4.122s2.564-1.707 4.121-1.707h.998zm18.314 8.483c.375-.25.536-.72.394-1.148l-.804-2.414 3.562-3.563c.369-.37.393-.961.052-1.358l-4.585-5.349h.998c1.557 0 3.021.606 4.121 1.707 1.101 1.101 1.707 2.565 1.707 4.122v10.171h-8.697zm5.152-13.539c-1.478-1.479-3.443-2.293-5.535-2.293h-3.172v-1.95c2.105-1.05 3.74-2.896 4.51-5.146l3.076-3.076c1.557-1.556 2.414-3.626 2.414-5.828s-.857-4.272-2.414-5.828l-.758-.758c-1.557-1.557-3.627-2.414-5.828-2.414h-10c-2.201 0-4.271.857-5.828 2.414l-.758.758c-1.557 1.556-2.414 3.626-2.414 5.828s.857 4.272 2.414 5.828l3.076 3.076c.77 2.25 2.405 4.096 4.51 5.146v1.95h-3.172c-2.092 0-4.058.814-5.535 2.293-1.479 1.479-2.293 3.445-2.293 5.536v10.171h-4v-50h23.586l14.414 14.414v35.586h-4v-10.171c0-2.091-.814-4.057-2.293-5.536zm-9.293-38.293h4.172l15.414 15.414v4.172zm15.586 8.586-4.586-4.586h4.586zm4 4-2-2v-7.586c0-.552-.447-1-1-1h-7.586l-2-2h12.586zm-46 45.414v-58h23.586l2 2h-22.586c-.553 0-1 .448-1 1v52c0 .552.447 1 1 1h40c.553 0 1-.448 1-1v-34.586l2 2v35.586z"/></svg>