<svg height="511pt" viewBox="-25 0 511 511.9989" width="511pt" xmlns="http://www.w3.org/2000/svg"><path d="m426.957031 316.449219c-14.199219 0-26.359375 8.875-31.25 21.367187l-32.335937-7.9375.628906-56.761718c.480469-43.5-2.125-57.289063-18.589844-98.355469-12.753906-31.808594-30.023437-71.503907-43.898437-103.398438-9.9375-22.835937-18.515625-42.558593-21.308594-49.980469-.011719-.035156-.023437-.0625-.035156-.097656-7.273438-18.765625-24.847657-24.210937-38.445313-19.886718-4.019531 1.277343-7.898437 3.507812-11.21875 6.59375-3.320312-3.085938-7.199218-5.316407-11.21875-6.59375-13.597656-4.320313-31.171875 1.121093-38.445312 19.886718-.015625.03125-.027344.0625-.039063.09375-2.476562 6.585938-9.636719 23.140625-16.757812 39.53125-2.199219 5.0625.121093 10.953125 5.1875 13.15625 5.0625 2.203125 10.957031-.121094 13.15625-5.1875 9.019531-20.75 14.714843-34.023437 17.117187-40.410156 2.96875-7.601562 9.023438-9.5 13.722656-8.007812 4.890626 1.554687 9.144532 7.074218 6.453126 17.910156l-27.355469 101.480468c-5.214844 3.507813-10.382813 9.457032-14.816407 19.132813-12.765624 27.847656-23.726562 57.640625-30.066406 81.742187-1.40625 5.34375 1.785156 10.8125 7.125 12.214844 5.34375 1.410156 10.8125-1.785156 12.214844-7.125 6.0625-23.039062 16.597656-51.648437 28.90625-78.496094 5.824219-12.703124 10.5-12.117187 12.261719-11.894531 5.609375.699219 9.601562 5.871094 8.898437 11.519531-.648437 5.226563-3.351562 24.238282-5.960937 42.625-2.753907 19.347657-5.347657 37.625-6.019531 43.03125-1.769532 14.222657.769531 30.78125 3.457031 48.308594 4.710937 30.753906 10.050781 65.613282-6.730469 95.492188-18.839844 33.546875-62.742188 56.515625-133.992188 70.078125v-108.636719l42.507813-10.433594c4.511719-1.105468 7.667969-5.175781 7.613281-9.820312l-.714844-64.695313c-.453124-40.953125 1.628907-51.972656 17.15625-90.691406 4.5625-11.375 9.976563-24.445313 16.550782-39.957031 2.15625-5.085938-.21875-10.953125-5.304688-13.109375-5.085937-2.15625-10.957031.21875-13.109375 5.304687-6.628906 15.628906-12.089843 28.820313-16.699219 40.316406-16.46875 41.070313-19.074218 54.859376-18.59375 98.359376l.628907 56.761718-32.335938 7.933594c-4.890625-12.488281-17.050781-21.363281-31.25-21.363281-18.5 0-33.550781 15.050781-33.550781 33.550781v128.449219c0 18.5 15.050781 33.550781 33.550781 33.550781 15.53125 0 28.625-10.609375 32.429688-24.960938 80.273437-14.59375 130.21875-41.074218 152.554687-80.84375 5.761719-10.257812 9.363282-20.863281 11.46875-31.535156 2.105469 10.671875 5.710938 21.277344 11.46875 31.535156 22.335938 39.769532 72.28125 66.246094 152.554688 80.84375 3.804687 14.347657 16.898437 24.960938 32.429687 24.960938 18.5 0 33.550781-15.050781 33.550781-33.550781v-128.449219c0-18.5-15.050781-33.550781-33.550781-33.550781zm-379.355469 162c0 7.472656-6.082031 13.550781-13.554687 13.550781-7.46875 0-13.550781-6.078125-13.550781-13.550781v-128.449219c0-7.472656 6.082031-13.550781 13.550781-13.550781 7.472656 0 13.550781 6.082031 13.550781 13.550781v128.449219zm185.3125-180.566407c-.8125 5.304688-1.65625 10.824219-2.410156 16.5-.753906-5.675781-1.597656-11.195312-2.410156-16.5-2.46875-16.121093-4.800781-31.347656-3.378906-42.816406.632812-5.105468 3.230468-23.394531 5.789062-41.398437 2.558594 18.003906 5.15625 36.292969 5.789063 41.398437 1.425781 11.46875-.90625 26.695313-3.378907 42.816406zm-2.410156-150.867187c-4.050781-5.203125-9.777344-9.09375-16.492187-10.769531l16.492187-61.179688 16.492188 61.179688c-6.710938 1.675781-12.441406 5.566406-16.492188 10.769531zm210.003906 331.433594c0 7.472656-6.078124 13.550781-13.550781 13.550781-7.472656 0-13.550781-6.078125-13.550781-13.550781v-33.640625c0-5.523438-4.476562-10-10-10s-10 4.476562-10 10v21.671875c-71.25-13.5625-115.15625-36.53125-133.996094-70.078125-16.777344-29.878906-11.4375-64.734375-6.726562-95.492188 2.6875-17.527344 5.222656-34.085937 3.457031-48.308594-.671875-5.40625-3.269531-23.683593-6.019531-43.03125-2.613282-18.386718-5.3125-37.398437-5.960938-42.625-.703125-5.648437 3.289063-10.820312 8.898438-11.523437 1.765625-.21875 6.4375-.804687 12.261718 11.894531 12.308594 26.847656 22.84375 55.460938 28.90625 78.5 1.402344 5.339844 6.871094 8.527344 12.214844 7.125 5.339844-1.402344 8.53125-6.875 7.125-12.214844-6.339844-24.101562-17.300781-53.898437-30.066406-81.742187-4.4375-9.675781-9.605469-15.625-14.816406-19.132813l-27.355469-101.480468c-2.691406-10.835938 1.5625-16.355469 6.453125-17.910156 4.699219-1.496094 10.753906.410156 13.722656 8.011718 2.988282 7.933594 11.234375 26.886719 21.667969 50.871094 13.820313 31.773438 31.027344 71.324219 43.671875 102.859375 15.527344 38.71875 17.613281 49.738281 17.160156 90.691406l-.71875 64.695313c-.050781 4.644531 3.105469 8.714844 7.617188 9.820312l42.507812 10.433594v6.964844c0 5.523437 4.476563 10 10 10 5.523438 0 10-4.476563 10-10v-14.808594c0-7.46875 6.078125-13.546875 13.550782-13.546875 7.46875 0 13.546874 6.078125 13.546874 13.546875zm0 0"/><path d="m153.335938 110.777344c1.285156.550781 2.621093.8125 3.933593.8125 3.882813 0 7.574219-2.273438 9.199219-6.0625v-.007813c2.175781-5.078125-.175781-10.953125-5.253906-13.128906-5.074219-2.175781-10.957032.179687-13.128906 5.257813-2.175782 5.074218.175781 10.953124 5.25 13.128906zm0 0"/><path d="m403.40625 394.808594c-5.523438 0-10 4.480468-10 10.003906s4.476562 10 10 10 10-4.476562 10-10v-.007812c0-5.523438-4.476562-9.996094-10-9.996094zm0 0"/></svg>